<?xml version="1.0" encoding="UTF-8"?>
<svg id="Livello_1" data-name="Livello 1" xmlns="http://www.w3.org/2000/svg" viewBox="0 0 1918 297.8" fill="currentColor">
  <defs>
    
  </defs>
  <path class="cls-1" d="M74.24,70.55v166.61h-26.64V70.55H4.82v-24.37h112.21v24.37h-42.79Z"/>
  <path class="cls-1" d="M349.09,237.16v-93.79h-174.26v93.79h-29.19V46.18h29.19v71.69h174.26V46.18h29.19v190.98h-29.19Z"/>
  <path class="cls-1" d="M425.88,237.16V46.18h26.64v190.98h-26.64Z"/>
  <path class="cls-1" d="M736.15,241.7h-3.68l-203.17-146.21v141.68h-29.19V41.65h3.68l202.88,146.5V46.18h29.47v195.52Z"/>
  <path class="cls-1" d="M783.46,237.16V46.18h26.64v190.98h-26.64ZM867.05,237.16l-51-94.92v-.85l51.57-95.21h30.6l-54.69,95.21,55.25,95.77h-31.74Z"/>
  <path class="cls-1" d="M1005.04,237.16V46.18h26.64v190.98h-26.64Z"/>
  <path class="cls-1" d="M1315.32,241.7h-3.68l-203.17-146.21v141.68h-29.19V41.65h3.68l202.88,146.5V46.18h29.47v195.52Z"/>
  <path class="cls-1" d="M1441.97,237.16V46.18h26.64v190.98h-26.64Z"/>
  <path class="cls-1" d="M1752.24,241.7h-3.68l-203.17-146.21v141.68h-29.19V41.65h3.68l202.88,146.5V46.18h29.47v195.52Z"/>
  <path class="cls-1" d="M1799.56,237.16V46.18h26.64v190.98h-26.64ZM1883.15,237.16l-51-94.92v-.85l51.57-95.21h30.6l-54.69,95.21,55.25,95.77h-31.74Z"/>
</svg>